<?xml version="1.0" encoding="UTF-8" standalone="no"?>
<!-- Created with Inkscape (http://www.inkscape.org/) -->

<svg
   width="238.125mm"
   height="158.75mm"
   viewBox="0 0 238.125 158.75"
   version="1.1"
   id="svg1"
   xml:space="preserve"
   sodipodi:docname="sss.svg"
   inkscape:version="1.4.2 (f4327f4, 2025-05-13)"
   inkscape:export-filename="cs.png"
   inkscape:export-xdpi="96"
   inkscape:export-ydpi="96"
   xmlns:inkscape="http://www.inkscape.org/namespaces/inkscape"
   xmlns:sodipodi="http://sodipodi.sourceforge.net/DTD/sodipodi-0.dtd"
   xmlns="http://www.w3.org/2000/svg"
   xmlns:svg="http://www.w3.org/2000/svg"><sodipodi:namedview
     id="namedview1"
     pagecolor="#505050"
     bordercolor="#ffffff"
     borderopacity="1"
     inkscape:showpageshadow="0"
     inkscape:pageopacity="0"
     inkscape:pagecheckerboard="1"
     inkscape:deskcolor="#505050"
     inkscape:document-units="mm"
     inkscape:zoom="0.51339147"
     inkscape:cx="274.64422"
     inkscape:cy="468.45344"
     inkscape:window-width="1920"
     inkscape:window-height="1017"
     inkscape:window-x="-8"
     inkscape:window-y="-8"
     inkscape:window-maximized="1"
     inkscape:current-layer="layer1" /><defs
     id="defs1"><clipPath
       id="b"><path
         id="a"
         d="M4678 1746s56 561 56 1683c-8 1146-865 1726-1494 2031-629-305-1486-885-1494-2031 0-1122 56-1683 56-1683z" /></clipPath></defs><g
     inkscape:label="Vrstva 1"
     inkscape:groupmode="layer"
     id="layer1"><g
       clip-path="url(#a-4)"
       id="g7"
       transform="matrix(5.2916667,0,0,5.2916667,-39.687501,-5.0000001e-7)"><path
         d="M 0,0 V 30 H 60 V 0 Z"
         fill="#012169"
         id="path3" /><path
         d="M 0,0 60,30 M 60,0 0,30"
         stroke="#ffffff"
         stroke-width="6"
         id="path4" /><path
         d="M 0,0 60,30 M 60,0 0,30"
         clip-path="url(#b-5)"
         stroke="#c8102e"
         stroke-width="4"
         id="path5" /><path
         d="M 30,0 V 30 M 0,15 h 60"
         stroke="#ffffff"
         stroke-width="10"
         id="path6" /><path
         d="M 30,0 V 30 M 0,15 h 60"
         stroke="#c8102e"
         stroke-width="6"
         id="path7" /></g></g></svg>
