<?xml version="1.0" encoding="UTF-8" standalone="no"?>
<!-- Created with Inkscape (http://www.inkscape.org/) -->

<svg
   width="238.125mm"
   height="158.75mm"
   viewBox="0 0 238.125 158.75"
   version="1.1"
   id="svg1"
   xml:space="preserve"
   sodipodi:docname="sss.svg"
   inkscape:version="1.4.2 (f4327f4, 2025-05-13)"
   inkscape:export-filename="cs.png"
   inkscape:export-xdpi="96"
   inkscape:export-ydpi="96"
   xmlns:inkscape="http://www.inkscape.org/namespaces/inkscape"
   xmlns:sodipodi="http://sodipodi.sourceforge.net/DTD/sodipodi-0.dtd"
   xmlns="http://www.w3.org/2000/svg"
   xmlns:svg="http://www.w3.org/2000/svg"><sodipodi:namedview
     id="namedview1"
     pagecolor="#505050"
     bordercolor="#ffffff"
     borderopacity="1"
     inkscape:showpageshadow="0"
     inkscape:pageopacity="0"
     inkscape:pagecheckerboard="1"
     inkscape:deskcolor="#505050"
     inkscape:document-units="mm"
     inkscape:zoom="0.51339147"
     inkscape:cx="858.99363"
     inkscape:cy="373.00971"
     inkscape:window-width="1920"
     inkscape:window-height="1017"
     inkscape:window-x="-8"
     inkscape:window-y="-8"
     inkscape:window-maximized="1"
     inkscape:current-layer="layer1" /><defs
     id="defs1" /><g
     inkscape:label="Vrstva 1"
     inkscape:groupmode="layer"
     id="layer1"><g
       id="g3"
       transform="matrix(1.6536458,0,0,1.6536458,119.0625,79.374998)"><path
         fill="#ffffff"
         d="M -72,-48 V 48 H 72 v -96 z"
         id="path1" /><g
         stroke="#000000"
         stroke-width="4"
         id="g2"><path
           d="m -34.946,-37.72 -13.314,19.97 m 4.992,3.328 13.313,-19.97 m 4.992,3.329 -13.312,19.969 m 63.236,42.157 6.101,-9.152 m 1.11,-1.664 6.101,-9.153 m 4.993,3.328 -6.102,9.153 m -1.11,1.664 -6.101,9.152 m 4.992,3.329 6.102,-9.153 m 1.11,-1.664 6.1,-9.153 m -96.516,0 13.313,19.97 m 4.992,-3.329 -6.102,-9.152 m -1.109,-1.664 -6.102,-9.153 m 4.993,-3.328 13.312,19.97 m 63.236,-42.158 -6.101,-9.153 m -1.11,-1.664 -6.101,-9.152 m 4.992,-3.328 13.313,19.969 m 4.992,-3.328 -6.102,-9.153 m -1.11,-1.664 -6.1,-9.153"
           id="path2" /></g><path
         fill="#cd2e3a"
         d="M 9.985,6.656 A 18.000437,18.000437 0 1 1 -19.97,-13.313 24,24 0 1 1 19.968,13.313"
         id="path3" /><path
         fill="#0047a0"
         d="M 0,0 A 12.000384,12.000384 0 1 1 19.97,13.313 24.000768,24.000768 0 1 1 -19.97,-13.313 12.000384,12.000384 0 1 0 0,0"
         id="path4" /></g></g></svg>
